# xmcd
#
# Track frame offsets:
#	150
#	17798
#	33220
#	50174
#	69058
#	87256
#	103904
#	117285
#	137827
#	152949
#	169907
#
# Disc length: 2438 seconds
#
# Revision: 0
# Processed by: cddbd v1.5.2PL0 Copyright (c) Steve Scherf et al.
# Submitted via: dBpowerAMP V4.0
#
DISCID=9209840b
DTITLE=Various Artist - Long Trip Alone
DYEAR=2006
DGENRE=Country
TTITLE0=Every Mile a Memory - Dierks Bentley
TTITLE1=Can't Live It Down - Dierks Bentley
TTITLE2=Long Trip Alone - Dierks Bentley
TTITLE3=That Don't Make It Easy Loving Me - Dierks Bentley
TTITLE4=Soon as You Can - Dierks Bentley
TTITLE5=Trying to Stop Your Leaving - Dierks Bentley
TTITLE6=Hope for Me Yet - Dierks Bentley
TTITLE7=The Heaven I'm Headed To - Dierks Bentley
TTITLE8=Free and Easy (Down the Road I Go) - Dierks Bentley
TTITLE9=Band of Brothers - Dierks Bentley
TTITLE10=Prodigal Son's Prayer - Dierks Bentley -  The Grascals
EXTD=
EXTT0=
EXTT1=
EXTT2=
EXTT3=
EXTT4=
EXTT5=
EXTT6=
EXTT7=
EXTT8=
EXTT9=
EXTT10=
PLAYORDER=
